<svg width="154" height="38" viewBox="0 0 154 38" fill="none" xmlns="http://www.w3.org/2000/svg">
<path d="M58.8505 32.2C57.9711 32.2 57.1847 32.0224 56.4915 31.667C55.7982 31.3013 55.2498 30.7787 54.8463 30.0994C54.4531 29.4097 54.2565 28.5736 54.2565 27.5912C54.2565 26.7238 54.4014 25.9975 54.6911 25.4122C54.9912 24.8165 55.3843 24.3306 55.8706 23.9544C56.3569 23.5781 56.9002 23.2855 57.5003 23.0765C58.1004 22.8675 58.7057 22.7159 59.3162 22.6219L63.8946 21.9008C63.936 21.0334 63.8067 20.3697 63.5066 19.9099C63.2169 19.4501 62.8031 19.1365 62.265 18.9693C61.7373 18.8021 61.1372 18.7185 60.4647 18.7185C60.1129 18.7185 59.73 18.7446 59.3162 18.7969C58.9126 18.8491 58.4832 18.938 58.028 19.0634C57.5831 19.1783 57.1123 19.3247 56.6156 19.5023C56.1293 19.6695 55.6275 19.8733 55.1101 20.1137L54.9239 17.1352C55.3067 16.9785 55.7361 16.8269 56.2121 16.6806C56.688 16.5343 57.2002 16.4037 57.7486 16.2887C58.3073 16.1633 58.8816 16.0692 59.4714 16.0065C60.0611 15.9438 60.6612 15.9125 61.2717 15.9125C62.4926 15.9125 63.5377 16.0954 64.4068 16.4611C65.276 16.8269 65.9433 17.4122 66.4089 18.2169C66.8745 19.0111 67.1074 20.0458 67.1074 21.3208C67.1074 21.8224 67.1074 22.4442 67.1074 23.1862C67.1074 23.9282 67.1074 24.618 67.1074 25.2555V27.1366C67.1074 27.8786 67.1074 28.6311 67.1074 29.394C67.1074 30.1569 67.1074 30.9825 67.1074 31.8708H64.1119L63.9257 29.8016H63.6308C63.3307 30.1883 62.9531 30.5645 62.4978 30.9303C62.0529 31.296 61.52 31.5991 60.8992 31.8395C60.2888 32.0798 59.6059 32.2 58.8505 32.2ZM59.937 29.5351C60.4336 29.5351 60.9199 29.4253 61.3959 29.2059C61.8822 28.976 62.3323 28.652 62.7461 28.234C63.16 27.8159 63.517 27.3091 63.817 26.7134V23.9544C63.6618 24.0484 63.4601 24.1372 63.2118 24.2209C62.9738 24.3045 62.6116 24.3985 62.1253 24.503C61.639 24.6075 60.9561 24.7382 60.0766 24.8949C59.5697 24.9785 59.1351 25.1301 58.7729 25.3495C58.4108 25.569 58.1263 25.8564 57.9193 26.2117C57.7227 26.5566 57.6244 26.9694 57.6244 27.4501C57.6244 28.2131 57.8521 28.7513 58.3073 29.0648C58.7729 29.3783 59.3162 29.5351 59.937 29.5351Z" fill="white"/>
<path d="M72.0234 30.02C71.6923 30.5426 71.3043 31.1592 70.8594 31.8698H74.5532C74.9567 31.201 75.3137 30.6001 75.6241 30.0671C75.9449 29.5236 76.3018 28.9227 76.695 28.2643L78.1694 25.7561H78.4333L80.0784 28.3897C80.482 29.0272 80.8441 29.6072 81.1649 30.1298C81.496 30.6523 81.8633 31.2323 82.2668 31.8698H86.2555C85.5416 30.8352 84.9363 29.9626 84.4397 29.2519C83.943 28.5413 83.4308 27.8045 82.9031 27.0416L80.7263 23.9257L82.7945 20.8495C83.1566 20.3269 83.4826 19.8514 83.7723 19.4229C84.0723 18.984 84.3827 18.5242 84.7035 18.0434C85.0346 17.5522 85.4278 16.967 85.883 16.2877H82.1116C81.7081 16.9461 81.3408 17.5522 81.0097 18.1061C80.6889 18.6496 80.3475 19.2348 79.9853 19.8619L78.5419 22.2447H78.2781L76.8347 19.8619C76.4519 19.2244 76.0897 18.6235 75.7483 18.0591C75.4172 17.4843 75.0343 16.852 74.5998 16.1623L70.8749 16.2877C71.3095 16.9357 71.6923 17.5157 72.0234 18.0278C72.3545 18.5294 72.6753 19.0101 72.9857 19.47C73.2961 19.9298 73.622 20.4262 73.9634 20.9592L75.8869 23.8734L73.9169 27.0102C73.5754 27.5432 73.2547 28.0448 72.9546 28.5151C72.6649 28.9854 72.3545 29.487 72.0234 30.02Z" fill="white"/>
<path d="M90.304 38C90.304 36.8608 90.304 35.7374 90.304 34.6296C90.304 33.5322 90.304 32.3409 90.304 31.0554V23.4681C90.304 22.3081 90.304 21.1272 90.304 19.9253C90.304 18.713 90.304 17.5007 90.304 16.2885L93.2839 16.1003L93.377 18.1696H93.6874C93.9875 17.7307 94.3703 17.3388 94.8359 16.9939C95.3016 16.649 95.8292 16.3825 96.419 16.1944C97.0191 15.9958 97.671 15.8965 98.3746 15.8965C99.7714 15.8965 100.951 16.2519 101.913 16.9625C102.886 17.6732 103.62 18.6451 104.117 19.8783C104.624 21.1115 104.878 22.4962 104.878 24.0325C104.878 25.4851 104.64 26.8385 104.164 28.0926C103.698 29.3363 102.989 30.3395 102.037 31.1024C101.085 31.8653 99.8852 32.2468 98.4367 32.2468C97.7641 32.2468 97.1485 32.158 96.5897 31.9803C96.0414 31.8026 95.5395 31.5466 95.0843 31.2122C94.6394 30.8778 94.2358 30.4754 93.8737 30.0051H93.6254V31.2279C93.6254 32.4297 93.6254 33.5532 93.6254 34.5982C93.6254 35.6538 93.6254 36.7511 93.6254 37.8902L90.304 38ZM97.3037 29.3154C98.2659 29.3154 99.0575 29.0698 99.6783 28.5786C100.299 28.0769 100.754 27.429 101.044 26.6347C101.334 25.83 101.479 24.9731 101.479 24.0638C101.479 23.1128 101.323 22.2454 101.013 21.4616C100.713 20.6673 100.253 20.0351 99.6317 19.5648C99.0109 19.0945 98.2194 18.8593 97.2571 18.8593C96.7812 18.8593 96.3156 18.9325 95.8603 19.0788C95.4154 19.2147 95.0015 19.4237 94.6187 19.7059C94.2358 19.9776 93.9047 20.3225 93.6254 20.7405V27.0737C93.8944 27.5335 94.2048 27.9306 94.5566 28.2651C94.9084 28.5995 95.3119 28.8607 95.7672 29.0489C96.2224 29.2265 96.7346 29.3154 97.3037 29.3154Z" fill="white"/>
<path fill-rule="evenodd" clip-rule="evenodd" d="M116.853 32.2314C114.959 32.2314 113.402 31.8761 112.181 31.1654C110.96 30.4547 110.055 29.4828 109.465 28.2496C108.886 27.0164 108.596 25.6004 108.596 24.0014C108.596 22.4233 108.875 21.0229 109.434 19.8002C110.003 18.5774 110.831 17.6264 111.917 16.9471C113.004 16.2574 114.318 15.9125 115.859 15.9125C117.194 15.9125 118.343 16.1685 119.305 16.6806C120.267 17.1822 121.007 17.9347 121.524 18.938C122.042 19.9413 122.3 21.1849 122.3 22.6689C122.3 23.066 122.29 23.4266 122.269 23.7506C122.259 24.0641 122.228 24.3776 122.176 24.6911H111.969C112.028 25.535 112.207 26.277 112.507 26.9172C112.89 27.7114 113.469 28.3228 114.245 28.7513C115.032 29.1798 116.02 29.394 117.21 29.394C117.665 29.394 118.162 29.3574 118.7 29.2843C119.248 29.2007 119.796 29.0752 120.345 28.908C120.893 28.7408 121.411 28.5266 121.897 28.2653L122.021 31.1811C121.628 31.3901 121.167 31.573 120.64 31.7297C120.112 31.8865 119.527 32.0067 118.886 32.0903C118.255 32.1844 117.577 32.2314 116.853 32.2314ZM118.374 19.5342C117.743 18.8236 116.915 18.4682 115.89 18.4682C115.094 18.4682 114.4 18.6877 113.811 19.1266C113.221 19.5656 112.761 20.1665 112.429 20.9294C112.243 21.3731 112.111 21.8557 112.032 22.3773L119.333 22.288C119.297 21.111 118.977 20.1931 118.374 19.5342Z" fill="white"/>
<path fill-rule="evenodd" clip-rule="evenodd" d="M134.163 32.2314C132.27 32.2314 130.712 31.8761 129.492 31.1654C128.271 30.4547 127.365 29.4828 126.775 28.2496C126.196 27.0164 125.906 25.6004 125.906 24.0014C125.906 22.4233 126.186 21.0229 126.744 19.8002C127.313 18.5774 128.141 17.6264 129.228 16.9471C130.314 16.2574 131.628 15.9125 133.17 15.9125C134.505 15.9125 135.653 16.1685 136.615 16.6806C137.578 17.1822 138.317 17.9347 138.835 18.938C139.352 19.9413 139.611 21.1849 139.611 22.6689C139.611 23.066 139.6 23.4266 139.58 23.7506C139.569 24.0641 139.538 24.3776 139.487 24.6911H129.28C129.338 25.535 129.517 26.277 129.817 26.9172C130.2 27.7114 130.78 28.3228 131.556 28.7513C132.342 29.1798 133.33 29.394 134.52 29.394C134.975 29.394 135.472 29.3574 136.01 29.2843C136.558 29.2007 137.107 29.0752 137.655 28.908C138.204 28.7408 138.721 28.5266 139.207 28.2653L139.331 31.1811C138.938 31.3901 138.478 31.573 137.95 31.7297C137.422 31.8865 136.838 32.0067 136.196 32.0903C135.565 32.1844 134.887 32.2314 134.163 32.2314ZM135.684 19.5342C135.053 18.8236 134.225 18.4682 133.201 18.4682C132.404 18.4682 131.711 18.6877 131.121 19.1266C130.531 19.5656 130.071 20.1665 129.74 20.9294C129.553 21.3731 129.421 21.8557 129.343 22.3773L136.643 22.288C136.607 21.111 136.288 20.1931 135.684 19.5342Z" fill="white"/>
<path d="M144.205 31.8706C144.205 30.7314 144.205 29.6289 144.205 28.5629C144.205 27.4969 144.205 26.3212 144.205 25.0358V23.4681C144.205 22.3081 144.205 21.1272 144.205 19.9253C144.205 18.713 144.205 17.5007 144.205 16.2885L147.045 16.1003L147.17 19.1729H147.48C147.894 18.2532 148.365 17.5582 148.892 17.0879C149.42 16.6177 149.958 16.3041 150.506 16.1474C151.055 15.9802 151.567 15.8965 152.043 15.8965C152.312 15.8965 152.591 15.9174 152.881 15.9592C153.171 16.0011 153.445 16.069 153.704 16.163L153.409 19.4864C153.047 19.4237 152.721 19.3767 152.431 19.3453C152.141 19.314 151.81 19.2983 151.438 19.2983C151.148 19.2983 150.827 19.3401 150.475 19.4237C150.124 19.4968 149.767 19.6536 149.405 19.894C149.053 20.1343 148.711 20.4949 148.38 20.9756C148.059 21.4459 147.775 22.0677 147.527 22.8411V25.2082C147.527 26.41 147.527 27.5387 147.527 28.5943C147.527 29.6393 147.527 30.7314 147.527 31.8706H144.205Z" fill="white"/>
<path d="M37.0774 31.8515C36.0998 31.7301 35.1712 31.2311 34.4847 30.4583C33.7006 29.5757 33.3046 28.5132 33.3043 27.2917C33.3043 26.7331 33.3518 26.3894 33.4968 25.9004C33.7916 24.9065 34.2933 24.202 35.2206 23.4799C38.0336 21.2896 41.8229 14.7618 43.5095 9.20063C43.9839 7.63649 44.2239 6.42944 44.2851 5.29929C44.3247 4.56727 44.399 4.02685 44.5136 3.63747C44.9426 2.17888 46.0825 1.0379 47.4886 0.659534C48.5076 0.385341 49.5434 0.512513 50.484 1.02728C51.7096 1.69805 52.558 2.9669 52.7589 4.42925C52.8244 4.90643 52.8043 5.65718 52.7148 6.07297C52.5276 6.94217 52.1708 7.64017 51.5958 8.26157C51.4421 8.42767 51.206 8.64279 51.0711 8.7396C50.1785 9.38037 49.1025 10.5464 48.0786 11.9826C45.4595 15.6561 43.089 20.7389 42.1668 24.6588C41.8891 25.8393 41.7723 26.7086 41.7688 27.6209C41.7656 28.4824 41.4325 29.4423 40.8817 30.1772C40.2632 31.0026 39.3864 31.5691 38.3901 31.7872C38.041 31.8636 37.4198 31.8941 37.0774 31.8515ZM15.0419 31.8024C13.4587 31.5112 12.1515 30.2985 11.7033 28.7054C11.5915 28.3079 11.5492 28.0333 11.5008 27.3904C11.3925 25.9515 11.3041 25.3147 11.0893 24.4274C10.3478 21.3638 8.58421 17.3011 6.55882 13.9909C5.56488 12.3664 4.67886 11.15 3.73205 10.1101C3.18762 9.5121 2.81265 9.15874 2.37508 8.83133C1.95399 8.51625 1.73499 8.30698 1.47301 7.96934C1.05297 7.42801 0.797829 6.89427 0.629428 6.20466C0.549469 5.87723 0.534908 5.7504 0.521712 5.26636C0.500669 4.49454 0.580807 3.98229 0.821717 3.34874C1.3514 1.95575 2.4861 0.939307 3.88768 0.602279C4.30359 0.50227 5.15565 0.493241 5.57654 0.584382C6.44298 0.772005 7.14936 1.18058 7.77786 1.85765C8.17245 2.28273 8.41476 2.64716 8.59957 3.09346C8.8681 3.74197 8.96421 4.21943 9.00383 5.10175C9.10221 7.29237 9.98371 10.3076 11.5182 13.7024C12.4949 15.8631 14.0501 18.668 14.5902 19.2429C15.1046 19.7904 15.7904 20.1124 16.5308 20.154C17.2586 20.195 17.9353 19.9795 18.489 19.5304C18.8454 19.2414 19.7546 18.0225 20.4157 16.9474C21.6438 14.9504 22.3633 13.1141 22.4914 11.6498C22.6799 9.4971 24.0048 7.88504 25.9572 7.43287C26.1543 7.38721 26.3454 7.37375 26.7809 7.37485C27.2841 7.37612 27.3866 7.38609 27.6919 7.4634C29.3712 7.8886 30.597 9.23824 30.9534 11.0546C31.0418 11.5049 31.048 12.3014 30.9666 12.7563C30.8054 13.6569 30.43 14.4462 29.8528 15.0977C29.3765 15.6353 28.8918 15.9681 28.0888 16.3089C26.1853 17.1166 23.821 19.5106 22.0542 22.4191C20.9696 24.2048 20.3174 25.8203 20.0675 27.3411C19.866 28.5667 19.7958 28.8336 19.5327 29.3748C19.3029 29.8474 19.0684 30.1843 18.7072 30.5607C18.0709 31.2238 17.3084 31.6427 16.454 31.7987C16.1071 31.8621 15.3764 31.864 15.0419 31.8024V31.8024Z" fill="white"/>
</svg>
